{"title":"Devil-AC3-Eng.Ned.Subs-BRRip 2010 TBS","uid":6028878,"size":1339442137,"categoryP":"video","categoryS":"movies","magnet":"?xt=urn:btih:3cb962aeeb123d503ad1ca4e3f401c1719477bf4&amp;dn=Devil-AC3-Eng.Ned.Subs-BRRip+2010+TBS&amp;tr=udp%3A%2F%2Ftracker.openbittorrent.com%3A80&amp;tr=udp%3A%2F%2Fopen.demonii.com%3A1337&amp;tr=udp%3A%2F%2Ftracker.coppersurfer.tk%3A6969&amp;tr=udp%3A%2F%2Fexodus.desync.com%3A6969","seeders":0,"leechers":0,"uploader":"FatFreddy30","files":-1,"time":1292002879,"description":"A group of people trapped in an elevator realize that the devil is among them..\n &lt;a href=&quot;\nhttp://www.imdb.com/title/tt1314655/&quot; rel=&quot;nofollow&quot; target=&quot;_NEW&quot;&gt;\nhttp://www.imdb.com/title/tt1314655/&lt;/a&gt;\n\nSubs: Dutch, English.\n\nBowden (Chris Messina), een politierechercheur die net van de drank af is, krijgt te maken met een veel voorkomende situatie. Vijf mensen zitten vast in een lift. Na een reeks onverklaarbare gebeurtenissen komen ze er achter dat ÃƒÂ©ÃƒÂ©n van hen de duivel zelf is. Er zit daarnaast meer achter de vijf personen dan menigeen zal denken. Een strijd op leven en dood begint. Wie zal de lift levend verlaten?\n &lt;a href=&quot;\nhttp://www.moviemeter.nl/film/68038&quot; rel=&quot;nofollow&quot; target=&quot;_NEW&quot;&gt;\nhttp://www.moviemeter.nl/film/68038&lt;/a&gt;\n\nOndertitels: Engels, Nederlands.\n\nGeneral\nComplete name                    : Devil-AC3-Eng.Ned.Subs-BRRip 2010 TBS\\Devil-AC3-Eng.Ned.Subs-BRRip 2010.avi\nFormat                           : AVI\nFormat/Info                      : Audio Video Interleave\nFile size                        : 1.25 GiB\nDuration                         : 1h 20mn\nOverall bit rate                 : 2 218 Kbps\nWriting application              : VirtualDubMod 1.5.4.1 (build 2178/release)\nWriting library                  : VirtualDubMod build 2178/release\nSource                           : Devil 720p Bluray x264-CBGB \n\nVideo\nID                               : 0\nFormat                           : MPEG-4 Visual\nFormat profile                   : Simple@L3\nFormat settings, BVOP            : No\nFormat settings, QPel            : No\nFormat settings, GMC             : No warppoints\nFormat settings, Matrix          : Default (H.263)\nCodec ID                         : XVID\nCodec ID/Hint                    : XviD\nDuration                         : 1h 20mn\nBit rate                         : 1 761 Kbps\nWidth                            : 720 pixels\nHeight                           : 304 pixels\nDisplay aspect ratio             : 2.35:1\nFrame rate                       : 23.976 fps\nResolution                       : 8 bits\nColorimetry                      : 4:2:0\nScan type                        : Progressive\nBits/(Pixel*Frame)               : 0.336\nStream size                      : 1 014 MiB (79%)\nWriting library                  : XviD 1.1.2 (UTC 2006-11-01)\n\nAudio\nID                               : 1\nFormat                           : AC-3\nFormat/Info                      : Audio Coding 3\nCodec ID                         : 2000\nDuration                         : 1h 20mn\nBit rate mode                    : Constant\nBit rate                         : 448 Kbps\nChannel(s)                       : 6 channels\nChannel positions                : Front: L C R, Surround: L R, LFE\nSampling rate                    : 48.0 KHz\nStream size                      : 258 MiB (20%)\nAlignment                        : Split accross interleaves\nInterleave, duration             : 42 ms (1.00 video frame)\nInterleave, preload duration     : 500 ms\n\nThanks to Simply ReleaseS for this awesome release.Nice job peeps!\n\nBlackbeard  TBS.","torrent":{"xt":"urn:btih:3cb962aeeb123d503ad1ca4e3f401c1719477bf4","amp;dn":"Devil-AC3-Eng.Ned.Subs-BRRip+2010+TBS","amp;tr":["udp%3A%2F%2Ftracker.openbittorrent.com%3A80","udp%3A%2F%2Fopen.demonii.com%3A1337","udp%3A%2F%2Ftracker.coppersurfer.tk%3A6969","udp%3A%2F%2Fexodus.desync.com%3A6969"],"infoHash":"3cb962aeeb123d503ad1ca4e3f401c1719477bf4","infoHashBuffer":{"type":"Buffer","data":[60,185,98,174,235,18,61,80,58,209,202,78,63,64,28,23,25,71,123,244]},"announce":[],"urlList":[]}}